<svg xmlns:dc="http://purl.org/dc/elements/1.1/" xmlns:cc="http://creativecommons.org/ns#" xmlns:rdf="http://www.w3.org/1999/02/22-rdf-syntax-ns#" xmlns:svg="http://www.w3.org/2000/svg" xmlns="http://www.w3.org/2000/svg" xmlns:sodipodi="http://sodipodi.sourceforge.net/DTD/sodipodi-0.dtd" xmlns:inkscape="http://www.inkscape.org/namespaces/inkscape" version="1.1" inkscape:version="0.48.0 r9654" width="312" height="312" xml:space="preserve" sodipodi:docname="logo.svg"><rect id="backgroundrect" width="100%" height="100%" x="0" y="0" fill="none" stroke="none" style="" class=""/><metadata id="metadata8"><rdf:RDF><cc:Work rdf:about=""><dc:format>image/svg+xml</dc:format><dc:type rdf:resource="http://purl.org/dc/dcmitype/StillImage"/><dc:title/></cc:Work></rdf:RDF></metadata><defs id="defs6"><clipPath clipPathUnits="userSpaceOnUse" id="clipPath18"><path d="M 0,2494.84 0,0 l 1804.34,0 0,2494.84 -1804.34,0 z" id="path20" inkscape:connector-curvature="0"/></clipPath></defs><sodipodi:namedview pagecolor="#ffffff" bordercolor="#666666" borderopacity="1" objecttolerance="10" gridtolerance="10" guidetolerance="10" inkscape:pageopacity="0" inkscape:pageshadow="2" inkscape:window-width="1500" inkscape:window-height="844" id="namedview4" showgrid="false" inkscape:zoom="1" inkscape:cx="-65.859116" inkscape:cy="172.53076" inkscape:window-x="2189" inkscape:window-y="496" inkscape:window-maximized="0" inkscape:current-layer="g10"/><g class="currentLayer" style=""><title>Layer 1</title><g id="g10" inkscape:groupmode="layer" inkscape:label="ink_ext_XXXXXX" class=""><g id="g3393" stroke-width="0"><path d="m265.3762445068359,150.27512542724608 c0,61.786 -48.96875,111.874 -109.375,111.874 c-60.405249999999995,0 -109.37406250000001,-50.088 -109.37406250000001,-111.874 c0,-61.7875 48.9688125,-111.87625 109.37406250000001,-111.87625 c60.40625,0 109.375,50.08875 109.375,111.87625 " style="fill:#d33833;fill-opacity:1;fill-rule:evenodd;stroke:none" id="path22" inkscape:connector-curvature="0" stroke-width="0"/><path d="m51.084219506835936,177.9826254272461 c0,0 -7.917975,-116.66624999999999 99.582525,-120 l-7.4995,-12.5 l-58.333000000000006,19.58375 l-16.667,19.16625 l-14.583025000000001,27.9175 l-8.3339875,32.5 l2.5,21.666249999999998 " style="fill:#ef3d3a;fill-opacity:1;fill-rule:nonzero;stroke:none" id="path24" inkscape:connector-curvature="0" stroke-width="0"/><path d="M81.08911950683594,73.95637542724612 C61.89911950683594,93.5913754272461 50.024157006835935,120.70137542724609 50.024157006835935,150.69262542724607 l0,0 c0,29.985 11.874962499999999,57.0985 31.0649625,76.72987499999999 l0,0 C100.28836950683593,247.0538754272461 126.74774450683594,259.1676254272461 155.99974450683595,259.1676254272461 l0,0 c29.25275,0 55.714,-12.113750000000001 74.9115,-31.745125 l0,0 c19.188750000000002,-19.631375 31.066250000000004,-46.74487499999999 31.066250000000004,-76.72987499999999 l0,0 c0,-29.991249999999997 -11.877500000000001,-57.10124999999999 -31.066250000000004,-76.73625 l0,0 c-19.1975,-19.6275 -45.65875,-31.74125 -74.9115,-31.74375 l0,0 C126.74774450683594,42.21512542724611 100.28836950683593,54.32887542724609 81.08911950683594,73.95637542724612 l0,0 zM76.23161950683594,232.1715004272461 C55.83711950683594,211.3141254272461 43.22874450683594,182.48887542724611 43.22874450683594,150.69262542724607 l0,0 c0,-31.80125 12.608375,-60.62375 33.002875,-81.48250000000002 l0,0 c20.389750000000003,-20.8625 48.614375,-33.79375 79.768125,-33.79 l0,0 c31.154000000000003,-0.0037500000000000033 59.3815,12.9275 79.76775,33.79 l0,0 c20.396250000000002,20.85875 33.00625,49.68375 33.00375,81.48250000000002 l0,0 c0.0025000000000000014,31.79625 -12.6075,60.6215 -33.00375,81.47887499999999 l0,0 C215.38124450683594,253.0328754272461 187.15374450683595,265.9625004272461 155.99974450683595,265.9625004272461 l0,0 c-31.153750000000002,0 -59.378375,-12.929625 -79.768125,-33.791000000000004 l0,0 " style="fill:#231f20;fill-opacity:1;fill-rule:nonzero;stroke:none" id="path26" inkscape:connector-curvature="0" stroke-width="0"/><path d="m202.04249450683594,150.89512542724611 l-16.6675,2.5 l-22.50025,2.5 l-14.584,0.4162500000000001 l-14.166,-0.4162500000000001 l-10.834,-3.33375 l-9.5835,-10.41625 l-7.5,-21.25 l-1.6665,-4.58375 l-10,-3.3325000000000005 l-5.833500000000001,-9.58375 l-4.1665,-13.75 l4.5840000000000005,-12.08375 l10.8325,-3.75 l8.75,4.1675 l4.1675,9.16625 l5,-0.8337500000000004 l1.6660000000000008,-2.0825 l-1.6660000000000008,-9.58375 l-0.4175000000000002,-12.08375 l2.5,-16.66625 l-0.0976250000000001,-9.52 l7.597625,-12.14625 l13.3335,-9.58375 l23.334000000000003,-10 l25.83275,3.75 l22.5,16.25 l10.4175,16.66625 l6.66625,12.08375 l1.6662500000000002,30 l-5,25.833750000000002 l-9.16625,22.916249999999998 l-8.75,12.08375 " style="fill:#f0d6b7;fill-opacity:1;fill-rule:evenodd;stroke:none" id="path28" inkscape:connector-curvature="0" stroke-width="0"/><path d="m187.87499450683595,222.9776254272461 l-59.58425,2.5 l0,10 l5,35 l-2.5,2.9175 l-41.666,-14.1675 l-2.9175,-5 l-4.1665,-47.082499999999996 l-9.582,-28.333750000000002 l-2.0840000000000005,-6.66625 l33.3325,-22.916249999999998 l10.4175,-4.1675 l9.166,11.25 l7.916499999999999,7.08375 l9.1675,2.9162500000000002 l4.166,1.25 l5,21.666249999999998 l3.75,4.583500000000001 l9.584,-3.3335000000000004 l-6.6674999999999995,12.9175 l36.25025,17.0825 l-4.5825000000000005,2.5 " style="fill:#335061;fill-opacity:1;fill-rule:evenodd;stroke:none" id="path30" inkscape:connector-curvature="0" stroke-width="0"/><path d="m89.12474450683594,77.5613754272461 l10.8325,-3.75 l8.75,4.1675 l4.1675,9.16625 l5,-0.8337500000000004 l1.25,-5 l-2.5,-9.5825 l2.5,-22.9175 l-2.0840000000000005,-12.5 l7.5,-8.75 l16.25,-12.91625 l-4.583500000000001,-6.25 l-22.916500000000003,11.25 l-9.5835,7.5 l-5.416499999999999,11.66625 l-8.3335,11.25 l-2.5,13.33375 l1.6675,14.16625 " style="fill:#6d6b6d;fill-opacity:1;fill-rule:evenodd;stroke:none" id="path32" inkscape:connector-curvature="0" stroke-width="0"/><path d="m106.20724450683593,38.395125427246114 c0,0 6.25,-15.41625 31.25,-22.916249999999998 c25,-7.5 1.25,-5.4174999999999995 1.25,-5.4174999999999995 l-27.0825,10.4175 l-10.4175,10.41625 l-4.5825000000000005,8.33375 l9.5825,-0.8337500000000004 " style="fill:#dcd9d8;fill-opacity:1;fill-rule:evenodd;stroke:none" id="path34" inkscape:connector-curvature="0" stroke-width="0"/><path d="m93.70724450683593,74.64512542724609 c0,0 -8.75,-29.1675 24.583499999999997,-33.33375 l-1.25,-5 l-22.915999999999997,5.4174999999999995 l-6.6674999999999995,21.666249999999998 l1.6675,14.16625 l4.5825000000000005,-2.9162500000000002 " style="fill:#dcd9d8;fill-opacity:1;fill-rule:evenodd;stroke:none" id="path36" inkscape:connector-curvature="0" stroke-width="0"/><path d="m107.04074450683594,113.39512542724609 l5.4556249999999995,-5.28625 c0,0 2.4623749999999998,0.28625000000000006 2.878375,3.2025000000000006 c0.41600000000000026,2.9175 1.6660000000000008,29.1675 19.5825,43.335 c1.6342500000000002,1.2925 -13.3325,-2.085 -13.3325,-2.085 l-13.334,-20.8325 " style="fill:#f7e4cd;fill-opacity:1;fill-rule:evenodd;stroke:none" id="path38" inkscape:connector-curvature="0" stroke-width="0"/><path d="m183.70999450683595,105.4788754272461 c0,0 0.9712500000000001,-12.629999999999999 4.3725000000000005,-11.65875 c3.40125,0.9712500000000001 3.40125,4.3725000000000005 3.40125,4.3725000000000005 c0,0 -8.260000000000002,5.34375 -7.7737500000000015,7.28625 " style="fill:#f7e4cd;fill-opacity:1;fill-rule:evenodd;stroke:none" id="path40" inkscape:connector-curvature="0" stroke-width="0"/><path d="m218.29124450683594,59.228875427246095 c0,0 -6.8675,1.4500000000000002 -7.5,7.5 c-0.6325000000000003,6.0512500000000005 7.5,1.25 8.75,0.8337500000000004 " style="fill:#f7e4cd;fill-opacity:1;fill-rule:nonzero;stroke:none" id="path42" inkscape:connector-curvature="0" stroke-width="0"/><path d="m167.87474450683595,59.646375427246085 c0,0 -9.1675,1.25 -9.1675,7.0825000000000005 c0,5.83375 10.417749999999998,5.4174999999999995 13.334,2.9175 " style="fill:#f7e4cd;fill-opacity:1;fill-rule:nonzero;stroke:none" id="path44" inkscape:connector-curvature="0" stroke-width="0"/><path d="m111.20724450683593,86.7288754272461 c0,0 -15.834,-9.58375 -17.5,-0.4162500000000001 c-1.6665,9.16625 -5.4174999999999995,15.83375 2.5,25.416249999999998 l-5.416499999999999,-1.6662500000000002 l-5,-12.91625 l-1.6660000000000008,-12.5 l9.5825,-10.001249999999999 l10.8335,0.8337500000000004 l6.25,5 l0.4165000000000002,6.25 " style="fill:#f7e4cd;fill-opacity:1;fill-rule:evenodd;stroke:none" id="path46" inkscape:connector-curvature="0" stroke-width="0"/><path d="m118.70724450683593,60.478875427246095 c0,0 7.083500000000001,-36.66625 42.917500000000004,-43.75 c29.5015,-5.83125 44.999,1.25 50.832750000000004,7.91625 c0,0 -26.25,-31.248749999999998 -51.25025,-21.666249999999998 c-25,9.58375 -43.332499999999996,27.083750000000002 -42.9165,38.3325 c0.7095000000000001,19.16 0.4165000000000002,19.1675 0.4165000000000002,19.1675 " style="fill:#f7e4cd;fill-opacity:1;fill-rule:evenodd;stroke:none" id="path48" inkscape:connector-curvature="0" stroke-width="0"/><path d="m215.37499450683595,28.811375427246105 c0,0 -12.0825,-0.4162500000000001 -12.5,10.4175 c0,0 -0.0012500000000000007,1.6662500000000002 0.8325000000000002,3.3325000000000005 c0,0 9.585,-10.83375 15.4175,-5 " style="fill:#f7e4cd;fill-opacity:1;fill-rule:evenodd;stroke:none" id="path50" inkscape:connector-curvature="0" stroke-width="0"/><path d="m162.46461950683593,43.69012542724607 c0,0 -2.0801250000000002,-16.62875 -16.257375,-6.96125 c-9.1665,6.25 -8.3325,15 -6.666499999999999,16.66625 c1.6665,1.6675 1.213375,5.02375 2.482,2.72 c1.268,-2.30375 0.8505000000000001,-9.80375 5.4345,-11.88625 c4.583500000000001,-2.08375 12.097125,-4.41125 15.007375,-0.5387500000000003 " style="fill:#f7e4cd;fill-opacity:1;fill-rule:evenodd;stroke:none" id="path52" inkscape:connector-curvature="0" stroke-width="0"/><path d="m123.29074450683594,156.3113754272461 l-39.166,17.5 c0,0 16.25,64.58375000000001 7.9159999999999995,84.58375000000001 l-5.833500000000001,-2.0825 l-0.4165000000000002,-24.584000000000003 l-10.831999999999999,-46.666 l-4.5840000000000005,-12.9175 l40.832499999999996,-27.498749999999998 l12.0835,11.665000000000001 " style="fill:#49728b;fill-opacity:1;fill-rule:evenodd;stroke:none" id="path54" inkscape:connector-curvature="0" stroke-width="0"/><path d="m127.31811950683594,192.0328754272461 l5.556625,6.77975 l0,25 l-6.6674999999999995,0 c0,0 -0.8325000000000002,-17.5 -0.8325000000000002,-19.584 c0,-2.0835000000000004 0.8325000000000002,-9.5835 0.8325000000000002,-9.5835 " style="fill:#49728b;fill-opacity:1;fill-rule:evenodd;stroke:none" id="path56" inkscape:connector-curvature="0" stroke-width="0"/><path d="m127.45724450683593,227.5626254272461 l-18.75,0.8325000000000002 l5.4174999999999995,3.75 l13.3325,2.0835000000000004 " style="fill:#49728b;fill-opacity:1;fill-rule:evenodd;stroke:none" id="path58" inkscape:connector-curvature="0" stroke-width="0"/><path d="m191.62499450683595,223.39512542724611 l15.41625,-0.4165000000000002 l3.75,38.334 l-15.83375,2.0825 l-3.3325000000000005,-40 " style="fill:#335061;fill-opacity:1;fill-rule:evenodd;stroke:none" id="path60" inkscape:connector-curvature="0" stroke-width="0"/><path d="m195.79124450683594,223.39512542724611 l23.333750000000002,-1.25 c0,0 9.5825,-24.166500000000003 9.5825,-25.416500000000003 c0,-1.25 8.33375,-34.99975 8.33375,-34.99975 l-18.75,-19.5825 l-3.75,-3.33375 l-10,10 l0,38.75 l-8.75,35.8325 " style="fill:#335061;fill-opacity:1;fill-rule:evenodd;stroke:none" id="path62" inkscape:connector-curvature="0" stroke-width="0"/><path d="m206.20749450683596,220.47862542724607 l-14.5825,2.9165 l2.0825,11.6675 c5.41625,2.5 14.58375,-4.1675 14.58375,-4.1675 " style="fill:#49728b;fill-opacity:1;fill-rule:evenodd;stroke:none" id="path64" inkscape:connector-curvature="0" stroke-width="0"/><path d="m206.62499450683595,147.5626254272461 l29.166249999999998,21.666249999999998 l0.8337500000000004,-10 l-22.083750000000002,-20.416249999999998 l-7.91625,8.75 " style="fill:#49728b;fill-opacity:1;fill-rule:evenodd;stroke:none" id="path66" inkscape:connector-curvature="0" stroke-width="0"/><path d="M141.91724450683594,305.4825629272461 L133.29074450683595,270.4776254272461 L129.00024450683594,244.64912542724608 L128.29074450683595,225.4776254272461 l39.0435,-2.0785000000000005 l24.290750000000003,-0.004000000000000003 l-2.20875,43.754 l3.75,33.74995 l-0.4162500000000001,6.25 l-31.66575,2.5 l-19.167,-4.1665125000000005 " style="fill:#ffffff;fill-opacity:1;fill-rule:evenodd;stroke:none" id="path68" inkscape:connector-curvature="0" stroke-width="0"/><path d="m186.20749450683593,222.97862542724607 c0,0 -2.0825,43.334 4.1675,74.1665 c0,0 -12.5,7.9175249999999995 -30.83425,10.000037500000001 l35.0005,-1.25 l4.16625,-2.5 l-5,-68.3325375 l-1.25,-14.584999999999999 " style="fill:#dcd9d8;fill-opacity:1;fill-rule:evenodd;stroke:none" id="path70" inkscape:connector-curvature="0" stroke-width="0"/><path d="m211.50124450683592,257.9826254272461 l16.25,-4.583500000000001 l30.8325,-1.6665 l4.58375,-14.166125000000001 l-8.33375,-24.583875000000003 l-9.5825,-1.25 l-13.33375,4.1665 l-12.7925,6.246 l-6.79125,-1.246 l-5.2925,2.0795000000000003 " style="fill:#ffffff;fill-opacity:1;fill-rule:evenodd;stroke:none" id="path72" inkscape:connector-curvature="0" stroke-width="0"/><path d="m211.20749450683596,249.64512542724611 c0,0 10.8325,-4.9990000000000006 12.5,-4.5825000000000005 l-4.5825000000000005,-22.9175 l5.41625,-2.0825 c0,0 3.75,21.665999999999997 3.75,24.165999999999997 c0,0 23.3325,1.25 25.416249999999998,1.25 c0,0 5,-9.5835 3.75,-19.5835 l4.58375,13.3335 l0.4162500000000001,7.5 l-6.66625,10 l-7.5,1.6665 l-12.5,-0.4165000000000002 l-4.16625,-5.4159999999999995 l-14.58375,2.0825 l-4.58375,1.6675 " style="fill:#dcd9d8;fill-opacity:1;fill-rule:evenodd;stroke:none" id="path74" inkscape:connector-curvature="0" stroke-width="0"/><path d="m194.83374450683596,220.0665004272461 l-9.16625,-23.333875000000003 l-9.58375,-13.75 c0,0 2.0825,-5.83375 5,-5.83375 c2.9175,0 9.58375,0 9.58375,0 l9.16625,3.33375 l-0.8325000000000002,15.4165 l-4.1675,24.167375 " style="fill:#ffffff;fill-opacity:1;fill-rule:nonzero;stroke:none" id="path76" inkscape:connector-curvature="0" stroke-width="0"/><path d="m196.62499450683595,212.14512542724611 c0,0 -11.6675,-22.499 -11.6675,-25.8325 c0,0 2.0825,-5 5,-3.75 c2.9175,1.25 9.1675,4.5825000000000005 9.1675,4.5825000000000005 l0,-7.91625 l-14.1675,-2.9175 l-9.5825,1.25 l16.25,38.33375 l3.3325000000000005,0.4175000000000002 " style="fill:#dcd9d8;fill-opacity:1;fill-rule:evenodd;stroke:none" id="path78" inkscape:connector-curvature="0" stroke-width="0"/><path d="m145.66774450683593,157.1501254272461 l-11.543000000000001,-1.255 l-10.834,-3.33375 l0,3.75 l5.2935,5.8375 l16.6665,7.5 " style="fill:#ffffff;fill-opacity:1;fill-rule:nonzero;stroke:none" id="path80" inkscape:connector-curvature="0" stroke-width="0"/><path d="m127.04224450683593,158.39887542724608 c0,0 12.9175,5.4174999999999995 17.084,4.1675 l0.4145000000000002,4.995 l-11.6645,-2.495 l-7.0840000000000005,-5 l1.25,-1.6675 " style="fill:#dcd9d8;fill-opacity:1;fill-rule:evenodd;stroke:none" id="path82" inkscape:connector-curvature="0" stroke-width="0"/><path d="m211.45624450683593,178.5676254272461 c-7.07,-0.2075000000000001 -13.4575,-1.0475 -19.05,-2.625 c0.38000000000000017,-2.2925 -0.33125000000000016,-4.5425 0.2400000000000001,-6.19375 c1.55875,-1.1225 4.171250000000001,-1.1050000000000002 6.527500000000001,-1.36875 c-2.0375,-1.00125 -4.9,-1.3975000000000004 -7.251250000000001,-0.8187500000000004 c-0.05500000000000003,-1.59125 -0.7687500000000006,-2.5774999999999997 -1.2012500000000002,-3.8225 c3.975,-1.41875 13.358749999999999,-10.72 18.6375,-7.6400000000000015 c2.515,1.4649999999999999 3.58375,9.8325 3.77875,13.901250000000001 c0.16250000000000006,3.375 -0.30625,6.78 -1.6812500000000008,8.5675 " style="fill:#d33833;fill-opacity:1;fill-rule:evenodd;stroke:none" id="path84" inkscape:connector-curvature="0" stroke-width="0"/><path d="m211.45624450683593,178.5676254272461 c-7.07,-0.2075000000000001 -13.4575,-1.0475 -19.05,-2.625 c0.38000000000000017,-2.2925 -0.33125000000000016,-4.5425 0.2400000000000001,-6.19375 c1.55875,-1.1225 4.171250000000001,-1.1050000000000002 6.527500000000001,-1.36875 c-2.0375,-1.00125 -4.9,-1.3975000000000004 -7.251250000000001,-0.8187500000000004 c-0.05500000000000003,-1.59125 -0.7687500000000006,-2.5774999999999997 -1.2012500000000002,-3.8225 c3.975,-1.41875 13.358749999999999,-10.72 18.6375,-7.6400000000000015 c2.515,1.4649999999999999 3.58375,9.8325 3.77875,13.901250000000001 c0.16250000000000006,3.375 -0.30625,6.78 -1.6812500000000008,8.5675 z" style="fill:none;stroke:#d33833;stroke-width:2;stroke-linecap:butt;stroke-linejoin:miter;stroke-miterlimit:4;stroke-opacity:1;stroke-dasharray:none" id="path86" inkscape:connector-curvature="0" stroke-width="0"/><path d="m177.64749450683593,167.0101254272461 c-0.01875000000000001,0.535 -0.04125000000000002,1.0737500000000002 -0.06250000000000004,1.61375 c-2.2075,1.4500000000000002 -5.77125,1.4325 -8.19375,2.65125 c3.57125,0.15625000000000006 6.3825,1.01625 8.815,2.2287500000000002 c-0.053750000000000034,1.3475000000000001 -0.10500000000000002,2.6937500000000005 -0.15750000000000006,4.04125 c-4.046250000000001,2.7700000000000005 -7.7425,6.8950000000000005 -12.506499999999999,9.492625 c-2.2525,1.2285 -10.15775,4.3896250000000006 -12.55425,3.831 c-1.3558750000000002,-0.3148750000000001 -1.4780000000000002,-1.9975 -2.02,-3.5835 c-1.1547500000000002,-3.3963750000000004 -3.8135000000000003,-8.802624999999999 -4.045375,-13.915125 c-0.2953750000000001,-6.4575000000000005 -0.9472500000000001,-17.28 6.01175,-15.95 c5.61425,1.07125 12.143999999999998,3.6575 16.490625,6.032500000000001 c2.65625,1.4525000000000001 4.1925,3.2474999999999996 8.2225,3.5575 " style="fill:#d33833;fill-opacity:1;fill-rule:evenodd;stroke:none" id="path88" inkscape:connector-curvature="0" stroke-width="0"/><path d="m177.64749450683593,167.0101254272461 c-0.01875000000000001,0.535 -0.04125000000000002,1.0737500000000002 -0.06250000000000004,1.61375 c-2.2075,1.4500000000000002 -5.77125,1.4325 -8.19375,2.65125 c3.57125,0.15625000000000006 6.3825,1.01625 8.815,2.2287500000000002 c-0.053750000000000034,1.3475000000000001 -0.10500000000000002,2.6937500000000005 -0.15750000000000006,4.04125 c-4.046250000000001,2.7700000000000005 -7.7425,6.8950000000000005 -12.506499999999999,9.492625 c-2.2525,1.2285 -10.15775,4.3896250000000006 -12.55425,3.831 c-1.3558750000000002,-0.3148750000000001 -1.4780000000000002,-1.9975 -2.02,-3.5835 c-1.1547500000000002,-3.3963750000000004 -3.8135000000000003,-8.802624999999999 -4.045375,-13.915125 c-0.2953750000000001,-6.4575000000000005 -0.9472500000000001,-17.28 6.01175,-15.95 c5.61425,1.07125 12.143999999999998,3.6575 16.490625,6.032500000000001 c2.65625,1.4525000000000001 4.1925,3.2474999999999996 8.2225,3.5575 z" style="fill:none;stroke:#d33833;stroke-width:2;stroke-linecap:butt;stroke-linejoin:miter;stroke-miterlimit:4;stroke-opacity:1;stroke-dasharray:none" id="path90" inkscape:connector-curvature="0" stroke-width="0"/><path d="m181.66624450683594,174.71512542724608 c-0.6175,-3.5175 -1.3312499999999998,-4.52125 -1.0550000000000002,-7.59 c9.38125,-6.254999999999999 11.1425,10.74375 1.0550000000000002,7.59 " style="fill:#d33833;fill-opacity:1;fill-rule:evenodd;stroke:none" id="path92" inkscape:connector-curvature="0" stroke-width="0"/><path d="m181.66624450683594,174.71512542724608 c-0.6175,-3.5175 -1.3312499999999998,-4.52125 -1.0550000000000002,-7.59 c9.38125,-6.254999999999999 11.1425,10.74375 1.0550000000000002,7.59 z" style="fill:none;stroke:#d33833;stroke-width:2;stroke-linecap:butt;stroke-linejoin:miter;stroke-miterlimit:4;stroke-opacity:1;stroke-dasharray:none" id="path94" inkscape:connector-curvature="0" stroke-width="0"/><path d="m195.24999450683595,177.5663754272461 c0,0 -2.9175,-4.1675 -0.8337500000000004,-5.4174999999999995 c2.08375,-1.25 4.1675,0.0012500000000000007 5.4174999999999995,-2.0825 c1.25,-2.08375 0,-3.33375 0.4162500000000001,-5.83375 c0.4162500000000001,-2.5 2.5012499999999998,-2.9175 4.58375,-3.33375 c2.0825,-0.4162500000000001 7.9174999999999995,-1.25 8.75,0.8337500000000004 l-2.5,-7.5 l-5,-1.6662500000000002 l-15.83375,9.16625 l-0.8337500000000004,4.58375 l0,9.16625 " style="fill:#ef3d3a;fill-opacity:1;fill-rule:evenodd;stroke:none" id="path96" inkscape:connector-curvature="0" stroke-width="0"/><path d="m151.50024450683594,191.3165004272461 c-0.5005000000000001,-6.502625 -1.03025,-12.996375 -1.619625,-19.492625 c-0.8818750000000004,-9.7 2.33,-8.0075 10.73825,-8.0075 c1.2842500000000001,0 7.907375,1.53125 8.381125,2.5 c2.2725,4.64125 -3.8,3.6100000000000003 2.6174999999999997,7.110000000000001 c5.4174999999999995,2.9537500000000003 14.9875,-1.7937500000000002 12.798750000000002,-8.360000000000001 c-1.225,-1.4600000000000002 -6.3825,-0.45500000000000007 -8.23125,-1.41375 c-3.255,-1.6875 -6.51,-3.375 -9.765375,-5.0625 c-4.141500000000001,-2.14875 -13.713375000000001,-5.28125 -18.128875,-2.27875 c-11.188,7.6087500000000015 0.7061250000000003,26.619999999999997 4.69725,34.557375 " style="fill:#ef3d3a;fill-opacity:1;fill-rule:evenodd;stroke:none" id="path98" inkscape:connector-curvature="0" stroke-width="0"/><path d="m162.46461950683593,43.69012542724607 c-11.3565,-2.645 -16.9995,4.7525 -20.441875,12.424999999999999 c-3.07375,-0.7450000000000003 -1.8506250000000006,-4.925 -1.0742500000000001,-7.055 c2.03275,-5.590000000000001 10.224625,-13.03125 16.918,-12.0225 c2.880375,0.4337500000000002 6.77825,3.0675000000000003 4.5981250000000005,6.6525 " style="fill:#231f20;fill-opacity:1;fill-rule:evenodd;stroke:none" id="path100" inkscape:connector-curvature="0" stroke-width="0"/><path d="m217.79749450683593,56.62262542724608 c0.17875000000000008,0.007500000000000007 0.36000000000000015,0.01375000000000001 0.5387500000000003,0.021250000000000015 c2.56625,5.33125 4.7875,10.97875 8.025,15.685 c-2.16875,5.0512500000000005 -16.4225,9.52125 -16.2025,0.45125000000000004 c3.0825000000000005,-1.3475000000000001 8.40375,-0.275 11.13625,-1.9962499999999999 c-1.58,-4.33625 -3.8600000000000003,-8.0275 -3.4975,-14.16125 " style="fill:#231f20;fill-opacity:1;fill-rule:evenodd;stroke:none" id="path102" inkscape:connector-curvature="0" stroke-width="0"/><path d="m168.27874450683595,56.761375427246094 c2.435,4.46375 3.2275,9.15375 6.6887500000000015,12.5275 c1.55875,1.51875 4.59,3.37 3.0875000000000004,7.59375 c-0.35125000000000006,0.9962500000000001 -2.9175,3.2175000000000002 -4.39875,3.65375 c-5.41125,1.5975000000000001 -18.02025,0.3300000000000001 -13.75025,-6.41625 c4.475125,0.2087500000000001 10.490250000000001,2.90625 13.835249999999998,-0.3425000000000002 c-2.56875,-4.10625 -7.148250000000001,-12.23 -5.4625,-17.01625 " style="fill:#231f20;fill-opacity:1;fill-rule:evenodd;stroke:none" id="path104" inkscape:connector-curvature="0" stroke-width="0"/><path d="m215.76624450683593,102.1288754272461 c-8.147499999999999,5.233750000000001 -17.232499999999998,10.925 -30.582500000000003,9.605 c-2.8525,-2.48 -3.9400000000000004,-7.99875 -1.1687500000000002,-11.643749999999999 c1.4425000000000001,2.48 0.5362500000000001,7.04125 4.55625,7.727500000000001 c7.574999999999999,1.2962500000000001 16.39125,-4.63375 21.840000000000003,-6.706250000000001 c3.37875,-5.696250000000001 -0.29125,-7.79125 -3.335,-11.4575 c-6.23125,-7.51125 -14.59,-16.82125 -14.28625,-28.06625 c2.5187500000000003,-1.8262500000000004 2.73625,2.7875 3.0975,3.6275000000000004 c3.25375,7.614999999999999 11.442499999999999,17.35375 17.41875,23.871250000000003 c1.4674999999999998,1.605 3.88375,3.145 4.1525,4.206250000000001 c0.7750000000000001,3.0862499999999997 -2.01625,6.7837499999999995 -1.6925000000000003,8.83625 " style="fill:#231f20;fill-opacity:1;fill-rule:evenodd;stroke:none" id="path106" inkscape:connector-curvature="0" stroke-width="0"/><path d="m108.35574450683593,96.61887542724611 c-2.55375,-1.4575 -3.161625,-7.8774999999999995 -6.159750000000001,-8.06 c-4.284625,-0.26 -3.503375,8.32875 -3.48625,13.35125 c-2.94925,-2.6774999999999998 -3.4678750000000003,-10.92125 -1.30125,-15.155000000000001 c-2.46925,-1.2125 -3.5718750000000004,1.3375000000000001 -4.9415,2.23625 c1.76025,-12.787500000000001 18.706125,-5.93125 15.88875,7.6275 " style="fill:#231f20;fill-opacity:1;fill-rule:evenodd;stroke:none" id="path108" inkscape:connector-curvature="0" stroke-width="0"/><path d="m220.95374450683596,107.45387542724612 c-3.7924999999999995,7.21875 -9.1575,15.16875 -20.28625,15.4 c-0.2262500000000001,-2.3312500000000003 -0.4000000000000002,-5.87875 0.012500000000000006,-7.282500000000001 c8.5075,-0.8175000000000001 13.759999999999998,-5.147500000000001 20.27375,-8.1175 " style="fill:#231f20;fill-opacity:1;fill-rule:evenodd;stroke:none" id="path110" inkscape:connector-curvature="0" stroke-width="0"/><path d="m167.63699450683595,112.1338754272461 c7.098,3.7325 20.143,4.13375 29.7905,3.8512500000000003 c0.5175000000000001,2.1137500000000005 0.505,4.7250000000000005 0.525,7.3025 c-12.40125,0.6187500000000002 -27.06375,-2.45 -30.3155,-11.15375 " style="fill:#231f20;fill-opacity:1;fill-rule:evenodd;stroke:none" id="path112" inkscape:connector-curvature="0" stroke-width="0"/><path d="m166.28786950683593,119.09387542724608 c4.908375,12.32375 21.778374999999997,10.905000000000001 36.004625,10.565 c-0.6262500000000002,1.6 -1.9837500000000001,3.4899999999999998 -3.6712500000000006,4.17375 c-4.55875,1.855 -17.1325,3.2625 -23.46125,-0.09875000000000009 c-4.01375,-2.13375 -6.5925,-6.955 -8.791625,-9.78125 c-1.0620000000000003,-1.3650000000000002 -6.350125,-4.85125 -0.08050000000000004,-4.8587500000000015 " style="fill:#231f20;fill-opacity:1;fill-rule:evenodd;stroke:none" id="path114" inkscape:connector-curvature="0" stroke-width="0"/><path d="m215.17374450683596,187.0723754272461 c-5.7600000000000025,9.86525 -11.271249999999998,19.997625 -18.105,28.69925 c2.8649999999999998,-8.423875 4.0912500000000005,-22.523 4.5237500000000015,-33.2715 c5.99375,-2.805 11.126249999999999,0.6312500000000002 13.58125,4.57225 " style="fill:#81b0c4;fill-opacity:1;fill-rule:evenodd;stroke:none" id="path116" inkscape:connector-curvature="0" stroke-width="0"/><path d="m246.16874450683594,222.5290004272461 c-6.4487499999999995,1.291 -10.98,7.5585 -17.271250000000002,7.15625 c3.4575,-4.874125 9.516250000000001,-6.92875 17.271250000000002,-7.15625 " style="fill:#231f20;fill-opacity:1;fill-rule:evenodd;stroke:none" id="path118" inkscape:connector-curvature="0" stroke-width="0"/><path d="m249.0137445068359,232.62125042724608 c-5.25625,0.5551250000000003 -11.43,1.40625 -16.76125,0.9677500000000002 c2.52375,-3.855 12.2475,-2.5248749999999998 16.76125,-0.9677500000000002 " style="fill:#231f20;fill-opacity:1;fill-rule:evenodd;stroke:none" id="path120" inkscape:connector-curvature="0" stroke-width="0"/><path d="m250.83499450683595,241.32237542724607 c-5.9075,0.128 -13.25,0.010250000000000006 -18.865000000000002,-0.46087500000000015 c3.32125,-3.567375 15.03375,-1.32375 18.865000000000002,0.46087500000000015 " style="fill:#231f20;fill-opacity:1;fill-rule:evenodd;stroke:none" id="path122" inkscape:connector-curvature="0" stroke-width="0"/><path d="m204.05874450683592,265.1338754272461 c0.8475000000000001,7.4190000000000005 3.7887500000000003,14.936125 3.4200000000000004,23.061125000000004 c-3.26625,1.1015000000000001 -5.1425,2.0648750000000002 -9.51875,2.059 c-0.30875,-6.9052500000000006 -1.2325,-17.461375 -0.9562500000000004,-24.043875 c2.1525,0.14250000000000004 5.32625,-1.5376250000000002 7.055,-1.0762500000000002 " style="fill:#dcd9d8;fill-opacity:1;fill-rule:evenodd;stroke:none" id="path124" inkscape:connector-curvature="0" stroke-width="0"/><path d="m194.53499450683594,155.7938754272461 c-2.9662500000000005,1.9362499999999998 -5.4925,4.35375 -8.34125,6.421250000000001 c-6.317500000000001,0.3125000000000001 -9.765,-0.43750000000000017 -14.40625,-4.0649999999999995 c0.07625000000000004,-0.29125 0.5425000000000001,-0.16125000000000006 0.56,-0.51875 c6.7625,3.01375 15.35875,-1.2275 22.1875,-1.8375 " style="fill:#f0d6b7;fill-opacity:1;fill-rule:evenodd;stroke:none" id="path126" inkscape:connector-curvature="0" stroke-width="0"/><path d="m159.03436950683593,201.8912504272461 c1.858,-8.05125 9.13825,-12.221124999999999 15.749375,-16.654875 c6.8237499999999995,8.660250000000001 10.973749999999999,19.7975 15.543750000000001,30.545 c-10.7975,-3.254875 -21.83,-8.536125 -31.293125000000003,-13.890125 " style="fill:#81b0c4;fill-opacity:1;fill-rule:evenodd;stroke:none" id="path128" inkscape:connector-curvature="0" stroke-width="0"/><path d="m197.00374450683594,266.2101254272461 c-0.27625000000000005,6.5825 0.6475000000000002,17.138625 0.9562500000000004,24.043875 c4.37625,0.0058750000000000035 6.2524999999999995,-0.9575000000000001 9.51875,-2.059 c0.36875,-8.125 -2.5725,-15.642125 -3.4200000000000004,-23.061125000000004 c-1.7287500000000002,-0.46137500000000015 -4.9025,1.21875 -7.055,1.0762500000000002 zM128.86111950683593,228.7741254272461 C131.74686950683594,255.30287542724608 135.92649450683592,277.6036254272461 143.59249450683592,301.0953629272461 C160.60661950683593,306.2613754272461 181.11749450683595,306.7115754272461 196.15624450683595,302.0499504272461 C193.39499450683593,288.7911254272461 194.60124450683594,272.6491254272461 192.98749450683593,258.5001254272461 c-1.21625,-10.63475 -0.5962500000000003,-21.335 -2.26375,-32.185 c-18.2225,-3.791 -43.979375000000005,-0.8862500000000003 -61.862624999999994,2.459 zm66.171375,-2.2925 c-0.15375000000000008,11.393500000000001 0.51,22.63225 1.3800000000000001,34.04 c4.375,-0.6567500000000004 7.34375,-1.09525 11.408750000000001,-1.9863750000000002 c-1.32,-10.982375 -1.1575,-23.34025 -3.84625,-33.055125 c-3.1075000000000004,0.02975000000000002 -5.84375,-0.03612500000000001 -8.942499999999999,1.0015 zm22.193749999999998,-1.8365 c-2.07625,-0.4760000000000002 -4.49375,-0.01850000000000001 -6.477500000000001,0.02000000000000001 c0.9325000000000001,9.287625 3.1950000000000003,19.53625 3.99125,29.28525 c3.12125,0.0971250000000001 4.78875,-1.375 7.356249999999999,-1.8701250000000005 c0.1375,-8.557625 -0.7475,-20.347624999999997 -4.87,-27.435125 zm33.605000000000004,30.703625 c6.50625,-1.58 10.5975,-9.54875 8.7775,-17.732375 c-1.22125,-5.5 -3.39625,-15.8565 -5.72375,-19.375 c-1.7200000000000002,-2.6025 -6.38375,-6.00975 -10.1075,-3.625 c-6.0575,3.8788750000000007 -16.72875,5.004875 -21.146250000000002,9.700125 c2.215,7.375 2.9025,17.504875 3.81625,26.849625000000003 c7.567500000000001,0.4717500000000001 16.87875,-2.0825 23.1725,0.6280000000000001 c-4.39375,1.4232500000000001 -10.095,1.4344999999999999 -13.89125,3.50875 c3.1025,1.4985000000000004 10.366249999999999,1.19575 15.102500000000001,0.045875000000000034 zM190.32749450683593,215.7813754272461 c-4.57,-10.7475 -8.72,-21.88475 -15.543750000000001,-30.545 C168.17261950683593,189.6701254272461 160.89236950683593,193.84000042724608 159.03436950683593,201.8912504272461 C168.49749450683595,207.2452504272461 179.52999450683592,212.5265004272461 190.32749450683593,215.7813754272461 zm11.265,-33.28125 c-0.4325000000000002,10.7485 -1.6587500000000004,24.847625 -4.5237500000000015,33.2715 c6.833749999999999,-8.701625 12.344999999999999,-18.834 18.105,-28.69925 c-2.455,-3.941 -7.5875,-7.37725 -13.58125,-4.57225 zm-12.77,-4.5375 c-2.58875,-0.27875000000000005 -4.78625,2.9762500000000003 -8.1525,1.56875 c-0.7712500000000001,0.8525000000000005 -1.4725000000000001,1.77625 -2.25875,2.60875 c7.4350000000000005,8.960125 10.813749999999999,21.6725 16.55625,32.20225 c3.08125,-10.114749999999999 2.7262500000000003,-21.19625 3.4050000000000002,-32.236 c-4.23375,0.26875000000000004 -6.5825,-3.8287500000000003 -9.55,-4.14375 zm-8.21125,-10.8375 c-0.27625000000000005,3.06875 0.43750000000000017,4.0725 1.0550000000000002,7.59 c10.0875,3.15375 8.32625,-13.845 -1.0550000000000002,-7.59 zm-11.18625,-3.6725000000000003 c-4.346625,-2.375 -10.876375,-4.9612500000000015 -16.490625,-6.032500000000001 c-6.959,-1.3312499999999998 -6.307125,9.4925 -6.01175,15.95 c0.23187500000000003,5.1125 2.890625,10.518749999999999 4.045375,13.915125 c0.542,1.5860000000000003 0.6641250000000004,3.268625 2.02,3.5835 c2.3965,0.5586250000000005 10.30175,-2.6025 12.55425,-3.831 c4.764,-2.5976250000000007 8.46025,-6.722625 12.506499999999999,-9.492625 c0.05250000000000003,-1.3475000000000001 0.10375000000000002,-2.6937500000000005 0.15750000000000006,-4.04125 c-2.4325,-1.2125 -5.24375,-2.0725000000000002 -8.815,-2.2287500000000002 c2.4225000000000003,-1.21875 5.98625,-1.2012500000000002 8.19375,-2.65125 c0.021250000000000015,-0.54 0.04375000000000003,-1.07875 0.06250000000000004,-1.61375 c-4.03,-0.31000000000000016 -5.56625,-2.1050000000000004 -8.2225,-3.5575 zm-41.516999999999996,-7.541250000000001 c-3.6075,3.6625 10.118125,8.655000000000001 14.48825,8.92375 c-0.024375000000000018,-2.3175 1.3207499999999999,-4.5024999999999995 1.0497500000000002,-6.165000000000001 c-5.190375,-0.9112500000000001 -12.011624999999999,-0.31000000000000016 -15.538,-2.75875 zm44.4395,1.7200000000000002 c-0.01750000000000001,0.35750000000000015 -0.48375000000000007,0.2275000000000001 -0.56,0.51875 c4.64125,3.6275000000000004 8.088750000000001,4.3774999999999995 14.40625,4.0649999999999995 c2.84875,-2.0675000000000003 5.375,-4.485 8.34125,-6.421250000000001 c-6.82875,0.6100000000000003 -15.425,4.85125 -22.1875,1.8375 zm40.79,12.368749999999999 c-0.1950000000000001,-4.06875 -1.26375,-12.43625 -3.77875,-13.901250000000001 c-5.27875,-3.08125 -14.662500000000001,6.22125 -18.6375,7.6400000000000015 c0.4325000000000002,1.245 1.14625,2.23125 1.2012500000000002,3.8225 c2.3512500000000003,-0.5787500000000002 5.21375,-0.18250000000000008 7.251250000000001,0.8187500000000004 c-2.35625,0.26375000000000004 -4.96875,0.2462500000000001 -6.527500000000001,1.36875 c-0.57125,1.65125 0.14,3.90125 -0.2400000000000001,6.19375 c5.5925,1.5775000000000001 11.98,2.4175000000000004 19.05,2.625 c1.375,-1.7875 1.84375,-5.1925 1.6812500000000008,-8.5675 zm-91.30274999999999,-10.546249999999999 c-1.132875,-0.8075000000000001 -8.796375,-10.778749999999999 -9.84625,-10.365 C98.12136950683593,154.5576254272461 85.15499450683593,164.0138754272461 73.56811950683594,172.95762542724611 C84.61549450683594,196.6627504272461 89.07499450683594,225.70525042724609 89.86299450683595,253.69737542724607 C102.51824450683594,259.6163754272461 113.63399450683593,268.1491254272461 130.80686950683594,269.0401254272461 C128.81961950683595,254.9801254272461 127.00561950683594,242.43612542724608 125.87761950683594,229.1988754272461 c-4.314875000000001,-1.8188750000000002 -10.505374999999999,0.08250000000000005 -14.543375000000001,-0.5640000000000002 c-0.03425000000000003,-4.866125 6.167,-2.130875 6.6835,-5.403250000000001 c0.3892500000000002,-2.4751250000000002 -3.412,-2.6626250000000002 -2.1742500000000002,-6.560125 c3.1567499999999997,1.1475 4.814500000000001,3.682125 8.181125,4.633875 c3.07625,-6.73 -0.04300000000000003,-18.63775 0.4003750000000002,-24.26275 c0.08400000000000007,-1.0561250000000002 0.527375,-5.8511250000000015 2.8931250000000004,-5.0097499999999995 c2.0937500000000004,0.7446250000000005 -0.11962500000000012,12.752375 0.10987500000000006,18.076125 c0.2090000000000001,4.9048750000000005 -0.5923750000000003,9.650875000000001 1.3940000000000001,12.729999999999999 c16.59425,-2.25875 33.457,-3.71875 51.41175,-4.211375 c-3.95,-1.6948750000000006 -8.6425,-3.2988750000000002 -13.78725,-6.1987499999999995 c-2.7889999999999997,-1.57225 -11.5805,-4.84375 -12.385250000000001,-7.49275 c-1.2841250000000002,-4.221125 3.369125,-6.469625 4.165,-10.088375000000001 c-8.376375,4.568375 -10.010625,-4.378875 -11.992125,-10.717625 c-1.7953750000000004,-5.74125 -2.8173749999999997,-10.03 -3.2578750000000003,-13.34125 c-7.21575,-3.4400000000000004 -14.930625000000001,-6.92375 -21.1415,-11.334999999999999 zm83.97399999999999,-9.15875 c11.55375,-5.6025 13.63625,20.938750000000002 9.1075,29.488750000000003 c0.7000000000000003,2.55 3.1075000000000004,3.52625 4.09,5.8187500000000005 c-6.447500000000001,11.549875 -13.60875,22.331125 -20.1875,33.745125 c4.89375,-3.0463750000000003 11.883750000000001,-0.5448750000000003 17.642500000000002,-2.825125 c2.1050000000000004,-0.8325000000000002 3.62875,-5.651375 5.2225,-9.506375 c4.38375,-10.606 8.98625,-23.977375 11.03375,-34.098625 c0.4625000000000002,-2.3062500000000004 1.7225000000000001,-7.331250000000001 1.4400000000000004,-9.38375 c-0.50375,-3.6750000000000007 -5.49,-6.4 -8.026250000000001,-8.6725 c-4.6725,-4.1975 -7.614999999999999,-7.891249999999999 -12.48875,-11.81625 c-1.9762499999999998,2.9175 -6.2175,4.8775 -7.83375,7.25 zm-110.397375,-102.46000000000001 c-5.505375,6.0575 -4.353,17.4075 -3.6865000000000006,25.482499999999998 c9.951125000000001,-6.26 23.159125,0.4950000000000002 23.034625000000002,11.1425 c4.751,-0.12625 1.7748750000000002,-5.93375 0.9155000000000001,-9.675 c-2.8085,-12.219999999999999 4.7315000000000005,-25.496249999999996 0.34187500000000026,-36.67125 c-8.523,0.6462500000000002 -15.525,4.1275 -20.6055,9.72125 zm39.392125,-35.1575 c-12.463375000000001,3.5324999999999998 -28.436625000000003,12.588750000000001 -33.558125,23.784999999999997 c3.96575,-0.57625 6.71875,-2.57625 10.630875,-2.82375 c1.4785000000000001,-0.09625000000000007 3.4155,0.6200000000000003 5.11475,0.1975000000000001 c3.38625,-0.8400000000000004 6.244125,-8.432500000000001 8.79875,-11.2575 c2.49025,-2.75875 5.4833750000000006,-3.9375 7.531750000000001,-6.4525 c1.3159999999999998,-0.6350000000000002 3.26175,-0.59125 3.3365,-2.5675 c-0.5703750000000003,-0.6100000000000003 -1.171,-1.0750000000000002 -1.8545,-0.8812500000000003 zm64.87899999999999,3.3225000000000007 c-12.936250000000001,-7.29875 -34.832625,-12.78875 -48.593374999999995,-5.928750000000001 c-11.1035,5.536250000000001 -26.112375,14.696250000000001 -31.229499999999998,26.30375 c4.7802500000000006,11.20125 -1.416,21.465 -1.8115,32.8375 c-0.2100000000000001,6.0512500000000005 2.849125,11.33375 3.0835,17.92125 c-1.6357500000000005,2.6987499999999995 -6.633375,3.03125 -10.092875,2.8462500000000004 c-1.1645,-5.8275 -3.203125,-12.3775 -9.204,-13.035 c-8.49125,-0.9287500000000004 -14.69975,6.098750000000001 -15.0855,13.442499999999999 c-0.4565,8.63625 6.63325,22.95 16.682125,21.95625 c3.881875,-0.38375000000000015 4.8355000000000015,-4.275 9.065,-4.234999999999999 c2.2923750000000003,4.57375 -3.536125,6.01 -4.13575,9.28125 c-0.15625000000000006,0.8450000000000004 0.48337500000000017,4.1475 0.8553750000000004,5.696250000000001 c1.82525,7.541250000000001 5.894125,17.30125 9.899000000000001,23.0425 c5.083,7.282500000000001 15.069375,8.379999999999999 25.813000000000002,9.09375 c1.9188749999999999,-4.13375 8.98775,-3.79375 13.59375,-2.7125 c-5.5200000000000005,-2.1862500000000002 -10.651875,-7.48625 -14.904875,-12.177500000000002 c-4.88525,-5.3825 -9.833874999999999,-11.15625 -10.083874999999999,-18.19125 c9.231875,12.807500000000001 16.858875,23.9925 33.646,29.62625 c12.70225,4.26 27.53725,-1.9525000000000001 37.297250000000005,-8.80625 c4.050000000000001,-2.84875 6.4675,-7.36875 9.346250000000001,-11.50625 c10.771250000000002,-15.493749999999999 15.7975,-37.60875 14.692499999999999,-59.04375 c-0.45500000000000007,-8.84 -0.4350000000000002,-17.65 -3.40125,-23.5975 c-3.1,-6.21875 -13.585,-11.7825 -19.7225,-6.157500000000001 c-1.1375,-6.0475 5.10375,-9.7875 12.435,-7.61125 c-5.227500000000001,-6.74625 -10.713750000000001,-14.8525 -18.14375,-19.045 zM223.78374450683592,215.45912542724608 c10.10875,-5.0253749999999995 28.99625,-13.526375 35.33375,0.01850000000000001 c2.33875,4.99275 5.0825,13.432625 6.29375,18.5865 c1.7112500000000002,7.271 -1.855,22.55375 -9.32875,24.993625 c-6.601249999999999,2.1547500000000004 -14.303749999999999,2.0235000000000003 -22.255,0.42625000000000024 c-0.9362500000000001,-0.7787500000000004 -1.9787500000000002,-2.13625 -2.7075,-3.5512500000000005 c-5.6775,-0.22025000000000008 -10.99375,0.30475 -15.478750000000002,2.638625 c0.4250000000000002,4.19875 -2.415,4.872625 -5.077500000000001,5.737375 c-1.9737500000000003,7.826125 3.9487499999999995,18.046375 2.53125,25.182625 c-1.01125,5.084 -7.266249999999999,5.8701250000000025 -11.86375,6.82125 c-0.15000000000000008,2.8252500000000005 0.20125000000000004,5.1836125 0.515,7.57375 c-1.05125,3.8735375 -5.76625,6.0786125 -10.233749999999999,6.6186500000000015 c-14.69875,1.7675800000000002 -37.016625,2.56152625 -51.154875000000004,-2.5224624999999996 c-3.94525,-9.677187499999999 -7.05325,-21.4473125 -10.339375,-32.4975625 c-13.789,1.472625 -24.941375,-5.94975 -35.455,-10.8125 c-3.6401250000000003,-1.6875 -8.67575,-2.617125 -10.035625,-5.5146250000000006 c-1.318375,-2.80525 -0.7788750000000003,-8.181625 -1.106,-13.26025 c-0.8325000000000002,-12.971250000000001 -1.545375,-25.482499999999998 -4.97075,-38.76375 c-1.5379999999999998,-5.959875 -4.21875,-11.21875 -6.088875,-16.961375 c-1.7285,-5.322375 -4.7485,-11.899875 -5.536125,-17.207375 c-1.167875,-7.86625 6.239249999999999,-8.303749999999999 10.975625,-11.712499999999999 c7.32175,-5.271249999999999 13.068875,-8.186250000000001 20.9985,-12.943750000000001 c2.348625,-1.40875 9.43125,-4.975 10.236875000000001,-6.6175000000000015 c1.6015000000000001,-3.25625 -2.7490000000000006,-7.8475 -3.912125,-10.4 c-1.8398750000000001,-4.03625 -2.799375,-7.465 -3.063,-11.4475 c-6.651875,-1.05125 -11.694374999999999,-5.01 -14.74025,-9.473749999999999 c-5.0385,-7.3875 -8.53275,-21.055 -4.173375,-31.45125 c0.34187500000000026,-0.8187500000000004 2.046875,-2.42875 2.298375,-3.6862500000000002 c0.4961250000000002,-2.47625 -0.9336250000000005,-5.768750000000001 -1.0225,-8.4025 c-0.4580000000000002,-13.512500000000001 2.2862500000000003,-25.154999999999998 11.382874999999999,-29.23 c3.692875000000001,-14.71125 16.910125,-19.6025 29.362750000000002,-26.91375 c4.6548750000000005,-2.7325 9.786125,-4.47875 15.0855,-6.42875 c19.01025,-6.996250000000001 48.177375,-5.67875 63.954875,6.25375 c6.69,5.0600000000000005 17.38375,15.74375 21.20875,23.47875 c10.102500000000001,20.42125 9.385,54.55 2.31875,79.39125 c-0.9500000000000004,3.335 -2.3275,8.2375 -4.25125,12.24375 c-1.34125,2.7975 -5.510000000000001,8.395 -5.00375,10.865 c0.52125,2.55375 9.505,9.375 11.431249999999999,11.232500000000002 c3.46875,3.34625 10.05875,7.7875000000000005 10.592500000000001,12.010000000000002 c0.5737500000000002,4.49375 -1.98,10.64125 -3.27375,14.9775 c-4.325,14.471125 -8.545,27.847624999999997 -13.44875,40.749 " style="fill:#231f20;fill-opacity:1;fill-rule:evenodd;stroke:none" id="path130" inkscape:connector-curvature="0" stroke-width="0"/><path d="m156.34249450683592,115.2863754272461 c0.5483750000000003,-0.7300000000000003 3.5635,-1.83875 7.78225,0.1925000000000001 c0,0 -5,0.8337500000000004 -4.5840000000000005,9.17 l-2.0835000000000004,-0.4175000000000002 c0,0 -2.1532500000000003,-7.55875 -1.1147500000000001,-8.945 " style="fill:#f7e4cd;fill-opacity:1;fill-rule:evenodd;stroke:none" id="path132" inkscape:connector-curvature="0" stroke-width="0"/><path d="m192.87499450683595,186.9376254272461 c0,1.265125 -1.02625,2.2910000000000004 -2.2925,2.2910000000000004 c-1.2650000000000001,0 -2.2912500000000002,-1.025875 -2.2912500000000002,-2.2910000000000004 c0,-1.2650000000000001 1.02625,-2.2925 2.2912500000000002,-2.2925 c1.2662499999999999,0 2.2925,1.0275 2.2925,2.2925 " style="fill:#1d1919;fill-opacity:1;fill-rule:evenodd;stroke:none" id="path134" inkscape:connector-curvature="0" stroke-width="0"/><path d="m195.16624450683594,197.5626254272461 c0,1.265125 -1.02625,2.2910000000000004 -2.2925,2.2910000000000004 c-1.2650000000000001,0 -2.2912500000000002,-1.025875 -2.2912500000000002,-2.2910000000000004 c0,-1.265125 1.02625,-2.2925 2.2912500000000002,-2.2925 c1.2662499999999999,0 2.2925,1.0273750000000001 2.2925,2.2925 " style="fill:#1d1919;fill-opacity:1;fill-rule:evenodd;stroke:none" id="path136" inkscape:connector-curvature="0" stroke-width="0"/></g></g></g></svg>