<svg version="1.1" xmlns="http://www.w3.org/2000/svg" xmlns:xlink="http://www.w3.org/1999/xlink" enable-background="new 0.6 1067.9 90.3 109.1" xml:space="preserve" width="109" height="109" style=""><rect id="backgroundrect" width="100%" height="100%" x="0" y="0" fill="none" stroke="none" style="" class=""/>

<g class="currentLayer" style=""><title>Layer 1</title><g id="svg_1" class="">
	<path fill="#EE4C2C" d="M86.29373645633459,31.90004882812491 l-8.1,8.1 c13.3,13.3 13.3,34.7 0,47.8 c-13.3,13.3 -34.7,13.3 -47.8,0 c-13.3,-13.3 -13.3,-34.7 0,-47.8 l0,0 l21.1,-21.1 l3,-3 l0,0 v-15.9 l-31.8,31.8 c-17.7,17.7 -17.7,46.3 0,64 c17.7,17.7 46.3,17.7 63.7,0 C103.99373645633459,78.10004882812495 103.99373645633459,49.70004882812509 86.29373645633459,31.90004882812491 z" id="svg_2"/>
	<circle fill="#EE4C2C" cx="70.39373721927404" cy="24.10009765625" r="5.899999618530273" id="svg_3"/>
</g></g></svg>