<svg width="283" height="280" xmlns="http://www.w3.org/2000/svg" preserveAspectRatio="xMinYMin meet">
 <g id="Layer_1">
  <title>Layer 1</title>
  <g>

   <path fill="#6929c4" d="m436.56201,249.08673l-22.77778,0c-17.86877,0 -26.1159,-9.81801 -26.1159,-25.52682l0,-12.17433c-35.9339,-4.51628 -58.51532,-32.9885 -58.51532,-82.07854c0,-53.99904 27.29406,-82.86398 68.92241,-82.86398s69.31513,28.86494 69.31513,82.86398c0,47.71551 -21.20689,75.99137 -55.1772,81.68582l0,16.49425l23.75958,0l0.58908,21.59961zm2.9454,-107.21263l0,-25.1341c0,-29.0613 -16.49425,-47.12643 -41.23563,-47.12643s-41.23563,17.86877 -41.23563,47.12643l0,25.1341c0,29.25766 16.49425,47.12643 41.23563,47.12643s41.23563,-17.86877 41.23563,-47.12643zm46.14463,-81.48946l0,-3.9272c0,-7.65805 4.51628,-13.15613 14.92337,-13.15613s14.72701,5.49808 14.72701,13.15613l0,3.9272c0,7.46169 -4.31992,12.95977 -14.72701,12.95977s-14.92337,-5.49808 -14.92337,-12.95977zm2.35632,29.65038l24.93774,0l0,119.38696l-24.93774,0l0,-119.38696zm45.94827,99.55459l15.90517,-14.53065c8.63985,10.40709 19.63601,16.88697 33.77394,16.88697s21.59961,-5.8908 21.59961,-16.10153c0,-7.46169 -4.51628,-13.15613 -16.88697,-14.92337l-10.99617,-1.37452c-24.34866,-2.9454 -39.27203,-13.54885 -39.27203,-35.34482c0,-23.36686 18.26149,-36.91571 44.37739,-36.91571c21.59961,0 33.77394,7.06896 44.57375,19.04693l-15.51245,14.72701a38.09387,38.09387 0 0 0 -29.0613,-13.54885c-13.74521,0 -20.22509,5.8908 -20.22509,14.92337s5.8908,13.35249 18.26149,15.31609l11.19253,1.37452c26.1159,3.9272 37.70115,15.51245 37.70115,34.75574c0,22.97414 -18.45785,38.29023 -47.12643,38.29023a57.53352,57.53352 0 0 1 -48.30459,-22.77778l0,0.19636zm112.51436,-150.01914l25.1341,0l0,104.07087l1.17816,0l16.49425,-21.01053l28.66858,-32.39942l29.0613,0l-41.82471,46.14463l46.93007,73.24233l-29.84674,0l-34.16666,-56.94444l-16.49425,17.86877l0,39.07567l-25.1341,0l0,-170.04788zm122.92144,20.81417l0,-3.9272c0,-7.65805 4.71264,-13.15613 14.92337,-13.15613s14.72701,5.49808 14.72701,13.15613l0,3.9272c0,7.46169 -4.31992,12.95977 -14.72701,12.95977s-14.92337,-5.49808 -14.92337,-12.95977zm2.35632,29.65038l24.93774,0l0,119.38696l-24.93774,0l0,-119.38696zm90.91474,119.38696c-17.27969,0 -26.50862,-9.81801 -26.50862,-25.91954l0,-73.04597l-18.45785,0l0,-20.42145l10.01437,0c8.24713,0 10.99617,-3.33812 10.99617,-11.78161l0,-20.81417l22.58142,0l0,32.59578l24.93774,0l0,20.42145l-24.93774,0l0,78.54405l23.1705,0l0,20.42145l-21.79597,0z" class="app-logo__solid"/>
   <path d="m259.44517,203.33481c-0.19636,-25.52682 -59.88984,-39.46839 -116.04884,-40.25383c-59.69348,0 -121.35056,14.92337 -121.54692,40.25383c0.39272,25.52682 60.0862,39.86111 116.2452,40.45019c59.49712,0 121.1542,-15.11973 121.35056,-40.25383l0,-0.19636zm-121.35056,31.22126c-62.83524,-0.78544 -106.62355,-16.88697 -106.81991,-31.0249c0.19636,-14.72701 48.10823,-31.41762 112.12164,-31.41762c62.83524,0.9818 106.62355,17.08333 106.81991,31.41762c0,14.53065 -48.10823,31.0249 -112.12164,31.0249z" fill="url(#svg_5)"/>
   <path fill="#6929c4" d="m141.04001,276.38078a137.45209,137.45209 0 1 1 120.76148,-202.25094a137.45209,137.45209 0 0 1 -120.76148,202.25094zm-0.58908,-265.28254a128.02681,128.02681 0 1 0 113.10344,67.35153a128.22317,128.22317 0 0 0 -112.71072,-67.35153l-0.39272,0z" class="app-logo__solid"/>
   <path d="m176.18847,258.11929c0,-10.60345 -15.31609,-18.65421 -35.34482,-18.65421s-35.34482,7.85441 -35.34482,18.45785l0,0.19636c0,10.40709 15.31609,18.45785 35.34482,18.45785s35.34482,-7.85441 35.34482,-18.45785zm-35.34482,9.81801c-15.90517,0 -26.1159,-5.8908 -26.1159,-9.81801s10.21073,-9.81801 26.1159,-9.81801s25.91954,5.69444 26.1159,9.81801s-10.40709,9.62165 -26.1159,9.62165l0,0.19636z" fill="url(#svg_4)"/>
   <path d="m278.09938,139.12505c-0.39272,-27.0977 -69.31513,-42.61015 -134.11397,-43.19923c-68.72605,0 -140.20114,16.10153 -140.59386,43.19923c0.39272,27.68678 69.31513,43.00287 134.11397,43.78831c68.72605,0 140.20114,-16.29789 140.59386,-43.39559l0,-0.39272zm-140.3975,34.16666c-73.43869,-0.78544 -124.68869,-18.65421 -125.08141,-34.16666c0.19636,-16.10153 56.35536,-34.16666 131.16857,-34.16666c73.63505,0.78544 124.88505,18.65421 125.08141,34.16666c-0.19636,16.10153 -56.35536,34.16666 -131.16857,34.16666z" fill="url(#svg_3)"/>
   <path d="m143.39633,34.07238c-59.69348,0 -121.35056,15.11973 -121.35056,40.45019s59.69348,39.86111 115.85248,40.45019c59.69348,0 121.35056,-15.11973 121.35056,-40.45019s-59.49712,-39.86111 -115.85248,-40.45019zm-5.30172,71.47509c-62.83524,-0.58908 -106.62355,-16.88697 -106.62355,-31.0249c0,-14.72701 47.91187,-31.22126 111.92528,-31.22126c62.83524,0.78544 106.62355,17.08333 106.62355,31.22126c0,14.72701 -47.91187,31.0249 -111.92528,31.0249z" fill="url(#svg_2)"/>
   <path fill="#6929c4" d="m140.25457,1.67296c-9.81801,0 -33.18486,1.37452 -33.18486,15.51245s23.1705,15.31609 33.38122,15.31609s32.9885,-1.37452 32.9885,-15.31609s-23.1705,-15.70881 -33.18486,-15.70881l0,0.19636zm0,9.42529c14.13793,0 23.75958,3.14176 23.75958,5.8908s-9.81801,6.28352 -23.56322,6.28352s-23.95594,-3.33812 -23.95594,-6.08716s9.81801,-6.08716 23.75958,-6.08716z" class="app-logo__solid"/>
   <path d="m198.37717,222.38175a11.97797,11.97797 0 0 0 -1.76724,0l-51.64272,-88.75478l-47.12643,-81.68582a11.78161,11.78161 0 1 0 -8.83621,4.31992a12.95977,12.95977 0 0 0 1.57088,0l47.12643,81.09674l21.20689,36.71935l30.23946,52.62452a11.78161,11.78161 0 1 0 9.22893,-4.31992z" fill="url(#svg_1)"/>
  </g>
 </g>
 <defs>
  <radialGradient gradientUnits="userSpaceOnUse" gradientTransform="matrix(1.8850570917129517,0.41235628724098206,-0.27490416169166565,1.2370688915252686,86.45188903808594,27.98522186279297)" r="65" cy="71.1" cx="63.5" id="svg_5">
   <stop stop-color="#6929c4" stop-opacity="0" offset="0.2" class="app-logo__gradient"/>
   <stop stop-color="#6929c4" offset="1" class="app-logo__gradient"/>
  </radialGradient>
  <radialGradient gradientUnits="userSpaceOnUse" gradientTransform="matrix(1.9243292808532715,0,0,1.1781607866287231,64.26319122314453,33.28694152832031)" r="35" cy="162.1" cx="40" id="svg_4">
   <stop stop-color="#6929c4" stop-opacity="0" offset="0" class="app-logo__gradient"/>
   <stop stop-color="#6929c4" offset="1" class="app-logo__gradient"/>
  </radialGradient>
  <radialGradient gradientUnits="userSpaceOnUse" gradientTransform="matrix(1.9243292808532715,0,0,1.472701072692871,64.06684875488281,19.541730880737305)" r="60.3" cy="29.8" cx="40.5" id="svg_3">
   <stop stop-color="#6929c4" stop-opacity="0" offset="0.2" class="app-logo__gradient"/>
   <stop stop-color="#6929c4" offset="1" class="app-logo__gradient"/>
  </radialGradient>
  <radialGradient gradientUnits="userSpaceOnUse" gradientTransform="matrix(0.7854405641555786,1.7476052045822144,-2.474137783050537,1.1192528009414673,66.81587219238281,0.1020875871181488)" r="40.7" cy="-0.4" cx="3.1" id="svg_2">
   <stop stop-color="#6929c4" stop-opacity="0" offset="0.4" class="app-logo__gradient"/>
   <stop stop-color="#6929c4" offset="1" class="app-logo__gradient"/>
  </radialGradient>
  <radialGradient gradientUnits="userSpaceOnUse" gradientTransform="matrix(1.9243292808532715,0,0,1.9243292808532715,64.26319122314453,5.992891311645508)" r="1068.9" cy="-1203.4" cx="-412.4" id="svg_1">
   <stop stop-color="#6929c4" stop-opacity="0" offset="0" class="app-logo__gradient"/>
   <stop stop-color="#6929c4" offset="0.4" class="app-logo__gradient"/>
  </radialGradient>
 </defs>
</svg>